<?xml version="1.0" encoding="utf-8" ?>
<svg baseProfile="full" height="235.8mm" version="1.1" width="372.0mm" xmlns="http://www.w3.org/2000/svg" xmlns:ev="http://www.w3.org/2001/xml-events" xmlns:xlink="http://www.w3.org/1999/xlink"><defs /><line stroke="rgb(190,190,190)" stroke-width="0.4mm" x1="0mm" x2="372.0mm" y1="0mm" y2="0mm" /><line stroke="rgb(190,190,190)" stroke-width="0.4mm" x1="0mm" x2="0mm" y1="0mm" y2="235.8mm" /><line stroke="rgb(190,190,190)" stroke-width="0.4mm" x1="0mm" x2="372.0mm" y1="235.8mm" y2="235.8mm" /><line stroke="rgb(190,190,190)" stroke-width="0.4mm" x1="372.0mm" x2="372.0mm" y1="0mm" y2="235.8mm" /><line stroke="rgb(190,190,190)" stroke-width="0.4mm" x1="70.4mm" x2="70.4mm" y1="0mm" y2="235.8mm" /><line stroke="rgb(190,190,190)" stroke-width="0.4mm" x1="170.8mm" x2="170.8mm" y1="0mm" y2="235.8mm" /><line stroke="rgb(190,190,190)" stroke-width="0.4mm" x1="271.2mm" x2="271.2mm" y1="0mm" y2="235.8mm" /><text fill="rgb(0,0,0)" style="font-size:16px; font-weight:bold;  font-family:Noto Serif" x="80mm" y="5mm">Время потраченное сборщиком /</text><text fill="rgb(0,0,0)" style="font-size:16px; font-weight:bold;  font-family:Noto Serif" x="80mm" y="10mm">Общее время (с)</text><text fill="rgb(0,0,0)" style="font-size:16px; font-weight:bold;  font-family:Noto Serif" x="180mm" y="5mm">Использованная память /</text><text fill="rgb(0,0,0)" style="font-size:16px; font-weight:bold;  font-family:Noto Serif" x="180mm" y="10mm"> Общая выделенная память (Kb)</text><text fill="rgb(0,0,0)" style="font-size:16px; font-weight:bold;  font-family:Noto Serif" x="280mm" y="5mm">средняя длительность паузы (с)</text><text fill="rgb(0,0,0)" style="font-size:16px; font-weight:bold;  font-family:Noto Serif" x="280mm" y="10mm">+ дисперсия длительности паузы</text><rect fill="navy" height="8mm" width="372.0mm" x="0mm" y="14.4mm" /><text fill="rgb(255,255,255)" style="font-size:20px; font-weight:bold;  font-family:Noto Serif; text-anchor:middle" x="186.0mm" y="20.4mm">listWithArrays</text><rect fill="rgb(204,70,95)" height="10mm" width="40.693411852902436mm" x="70.8mm" y="22.4mm" /><rect fill="rgb(204,70,95)" height="10mm" width="4.4875144948251515mm" x="171.20000000000002mm" y="22.4mm" /><rect fill="rgb(161,55,74)" height="10mm" width="5.930899486563925mm" x="70.8mm" y="22.4mm" /><rect fill="rgb(161,55,74)" height="10mm" width="2.636177849980382mm" x="171.20000000000002mm" y="22.4mm" /><rect fill="rgb(204,70,95)" height="10mm" width="13.53284048905317mm" x="271.6mm" y="22.4mm" /><line stroke="rgb(250,0,0)" stroke-width="0.5mm" x1="276.35405174864945mm" x2="276.35405174864945mm" y1="24.4mm" y2="30.4mm" /><line stroke="rgb(250,0,0)" stroke-width="0.5mm" x1="276.35405174864945mm" x2="293.91162922945693mm" y1="27.4mm" y2="27.4mm" /><line stroke="rgb(250,0,0)" stroke-width="0.5mm" x1="293.91162922945693mm" x2="293.91162922945693mm" y1="24.4mm" y2="30.4mm" /><text fill="rgb(0,0,0)" style="font-size:20px; font-weight:bold;  font-family:Noto Serif;text-anchor:end" x="60mm" y="28.4mm">copy_LLVM</text><line stroke="rgb(190,190,190)" stroke-width="0.4mm" x1="0.0mm" x2="372.0mm" y1="32.4mm" y2="32.4mm" /><rect fill="rgb(101,86,150)" height="10mm" width="95.0mm" x="70.8mm" y="32.6mm" /><rect fill="rgb(101,86,150)" height="10mm" width="4.295375586979682mm" x="171.20000000000002mm" y="32.6mm" /><rect fill="rgb(79,67,117)" height="10mm" width="24.86514881588325mm" x="70.8mm" y="32.6mm" /><rect fill="rgb(79,67,117)" height="10mm" width="2.0201493011247287mm" x="171.20000000000002mm" y="32.6mm" /><rect fill="rgb(101,86,150)" height="10mm" width="56.751492749502425mm" x="271.6mm" y="32.6mm" /><line stroke="rgb(250,0,0)" stroke-width="0.5mm" x1="290.10298549900483mm" x2="290.10298549900483mm" y1="34.6mm" y2="40.6mm" /><line stroke="rgb(250,0,0)" stroke-width="0.5mm" x1="290.10298549900483mm" x2="366.6mm" y1="37.6mm" y2="37.6mm" /><line stroke="rgb(250,0,0)" stroke-width="0.5mm" x1="366.6mm" x2="366.6mm" y1="34.6mm" y2="40.6mm" /><text fill="rgb(0,0,0)" style="font-size:20px; font-weight:bold;  font-family:Noto Serif;text-anchor:end" x="60mm" y="38.6mm">copy</text><line stroke="rgb(190,190,190)" stroke-width="0.4mm" x1="0.0mm" x2="372.0mm" y1="42.6mm" y2="42.6mm" /><rect fill="rgb(183,210,217)" height="10mm" width="71.91112983357124mm" x="70.8mm" y="42.800000000000004mm" /><rect fill="rgb(183,210,217)" height="10mm" width="95.0mm" x="171.20000000000002mm" y="42.800000000000004mm" /><rect fill="rgb(157,180,186)" height="10mm" width="1.2126129782239705mm" x="70.8mm" y="42.800000000000004mm" /><rect fill="rgb(157,180,186)" height="10mm" width="94.85667926054091mm" x="171.20000000000002mm" y="42.800000000000004mm" /><rect fill="rgb(183,210,217)" height="10mm" width="1.0534546488484504mm" x="271.6mm" y="42.800000000000004mm" /><line stroke="rgb(250,0,0)" stroke-width="0.5mm" x1="272.6264429911857mm" x2="272.6264429911857mm" y1="44.800000000000004mm" y2="50.800000000000004mm" /><line stroke="rgb(250,0,0)" stroke-width="0.5mm" x1="272.6264429911857mm" x2="272.6804663065113mm" y1="47.800000000000004mm" y2="47.800000000000004mm" /><line stroke="rgb(250,0,0)" stroke-width="0.5mm" x1="272.6804663065113mm" x2="272.6804663065113mm" y1="44.800000000000004mm" y2="50.800000000000004mm" /><text fill="rgb(0,0,0)" style="font-size:20px; font-weight:bold;  font-family:Noto Serif;text-anchor:end" x="60mm" y="48.800000000000004mm">non_collecting</text><line stroke="rgb(190,190,190)" stroke-width="0.4mm" x1="0.0mm" x2="372.0mm" y1="52.800000000000004mm" y2="52.800000000000004mm" /><text fill="rgb(0,0,0)" style="font-size:15px; font-weight:bold;  font-family:Noto Serif;" x="75mm" y="57.00000000000001mm">0</text><text fill="rgb(0,0,0)" style="font-size:14px; font-weight:bold;  font-family:Noto Serif; text-anchor:end" x="165mm" y="57.00000000000001mm">22.2</text><text fill="rgb(0,0,0)" style="font-size:15px; font-weight:bold;  font-family:Noto Serif;" x="175mm" y="57.00000000000001mm">0</text><text fill="rgb(0,0,0)" style="font-size:14px; font-weight:bold;  font-family:Noto Serif; text-anchor:end" x="265mm" y="57.00000000000001mm">1.14e+05</text><text fill="rgb(0,0,0)" style="font-size:15px; font-weight:bold;  font-family:Noto Serif;" x="275mm" y="57.00000000000001mm">0</text><text fill="rgb(0,0,0)" style="font-size:14px; font-weight:bold;  font-family:Noto Serif; text-anchor:end" x="365mm" y="57.00000000000001mm">0.0352</text><rect fill="navy" height="8mm" width="372.0mm" x="0.0mm" y="58.00000000000001mm" /><text fill="rgb(255,255,255)" style="font-size:20px; font-weight:bold;  font-family:Noto Serif; text-anchor:middle" x="186.0mm" y="64.0mm">treeTestWithBackLinks</text><rect fill="rgb(204,70,95)" height="10mm" width="36.396405578598404mm" x="70.8mm" y="66.0mm" /><rect fill="rgb(204,70,95)" height="10mm" width="3.107775255537045mm" x="171.20000000000002mm" y="66.0mm" /><rect fill="rgb(161,55,74)" height="10mm" width="6.81455669185452mm" x="70.8mm" y="66.0mm" /><rect fill="rgb(161,55,74)" height="10mm" width="1.7710073247095324mm" x="171.20000000000002mm" y="66.0mm" /><rect fill="rgb(204,70,95)" height="10mm" width="12.263386396526775mm" x="271.6mm" y="66.0mm" /><line stroke="rgb(250,0,0)" stroke-width="0.5mm" x1="275.476989869754mm" x2="275.476989869754mm" y1="68.0mm" y2="74.0mm" /><line stroke="rgb(250,0,0)" stroke-width="0.5mm" x1="275.476989869754mm" x2="292.24978292329956mm" y1="71.0mm" y2="71.0mm" /><line stroke="rgb(250,0,0)" stroke-width="0.5mm" x1="292.24978292329956mm" x2="292.24978292329956mm" y1="68.0mm" y2="74.0mm" /><text fill="rgb(0,0,0)" style="font-size:20px; font-weight:bold;  font-family:Noto Serif;text-anchor:end" x="60mm" y="72.0mm">copy_LLVM</text><line stroke="rgb(190,190,190)" stroke-width="0.4mm" x1="0.0mm" x2="372.0mm" y1="76.0mm" y2="76.0mm" /><rect fill="rgb(101,86,150)" height="10mm" width="94.99999999999999mm" x="70.8mm" y="76.2mm" /><rect fill="rgb(101,86,150)" height="10mm" width="3.057394740013171mm" x="171.20000000000002mm" y="76.2mm" /><rect fill="rgb(79,67,117)" height="10mm" width="31.53958108425099mm" x="70.8mm" y="76.2mm" /><rect fill="rgb(79,67,117)" height="10mm" width="1.3533529471668604mm" x="171.20000000000002mm" y="76.2mm" /><rect fill="rgb(101,86,150)" height="10mm" width="56.78002894356006mm" x="271.6mm" y="76.2mm" /><line stroke="rgb(250,0,0)" stroke-width="0.5mm" x1="290.16005788712016mm" x2="290.16005788712016mm" y1="78.2mm" y2="84.2mm" /><line stroke="rgb(250,0,0)" stroke-width="0.5mm" x1="290.16005788712016mm" x2="366.6mm" y1="81.2mm" y2="81.2mm" /><line stroke="rgb(250,0,0)" stroke-width="0.5mm" x1="366.6mm" x2="366.6mm" y1="78.2mm" y2="84.2mm" /><text fill="rgb(0,0,0)" style="font-size:20px; font-weight:bold;  font-family:Noto Serif;text-anchor:end" x="60mm" y="82.2mm">copy</text><line stroke="rgb(190,190,190)" stroke-width="0.4mm" x1="0.0mm" x2="372.0mm" y1="86.2mm" y2="86.2mm" /><rect fill="rgb(183,210,217)" height="10mm" width="65.19285509789147mm" x="70.8mm" y="86.4mm" /><rect fill="rgb(183,210,217)" height="10mm" width="95.0mm" x="171.20000000000002mm" y="86.4mm" /><rect fill="rgb(157,180,186)" height="10mm" width="1.0313605478497598mm" x="70.8mm" y="86.4mm" /><rect fill="rgb(157,180,186)" height="10mm" width="94.83583706360734mm" x="171.20000000000002mm" y="86.4mm" /><rect fill="rgb(183,210,217)" height="10mm" width="1.0723589001447178mm" x="271.6mm" y="86.4mm" /><line stroke="rgb(250,0,0)" stroke-width="0.5mm" x1="272.6173661360347mm" x2="272.6173661360347mm" y1="88.4mm" y2="94.4mm" /><line stroke="rgb(250,0,0)" stroke-width="0.5mm" x1="272.6173661360347mm" x2="272.72735166425474mm" y1="91.4mm" y2="91.4mm" /><line stroke="rgb(250,0,0)" stroke-width="0.5mm" x1="272.72735166425474mm" x2="272.72735166425474mm" y1="88.4mm" y2="94.4mm" /><text fill="rgb(0,0,0)" style="font-size:20px; font-weight:bold;  font-family:Noto Serif;text-anchor:end" x="60mm" y="92.4mm">non_collecting</text><line stroke="rgb(190,190,190)" stroke-width="0.4mm" x1="0.0mm" x2="372.0mm" y1="96.4mm" y2="96.4mm" /><text fill="rgb(0,0,0)" style="font-size:15px; font-weight:bold;  font-family:Noto Serif;" x="75mm" y="100.60000000000001mm">0</text><text fill="rgb(0,0,0)" style="font-size:14px; font-weight:bold;  font-family:Noto Serif; text-anchor:end" x="165mm" y="100.60000000000001mm">23.3</text><text fill="rgb(0,0,0)" style="font-size:15px; font-weight:bold;  font-family:Noto Serif;" x="175mm" y="100.60000000000001mm">0</text><text fill="rgb(0,0,0)" style="font-size:14px; font-weight:bold;  font-family:Noto Serif; text-anchor:end" x="265mm" y="100.60000000000001mm">1.01e+05</text><text fill="rgb(0,0,0)" style="font-size:15px; font-weight:bold;  font-family:Noto Serif;" x="275mm" y="100.60000000000001mm">0</text><text fill="rgb(0,0,0)" style="font-size:14px; font-weight:bold;  font-family:Noto Serif; text-anchor:end" x="365mm" y="100.60000000000001mm">0.0345</text><rect fill="navy" height="8mm" width="372.0mm" x="0.0mm" y="101.60000000000001mm" /><text fill="rgb(255,255,255)" style="font-size:20px; font-weight:bold;  font-family:Noto Serif; text-anchor:middle" x="186.0mm" y="107.60000000000001mm">diff</text><rect fill="rgb(204,70,95)" height="10mm" width="47.91204578696805mm" x="70.8mm" y="109.60000000000001mm" /><rect fill="rgb(204,70,95)" height="10mm" width="0.8912961747468866mm" x="171.20000000000002mm" y="109.60000000000001mm" /><rect fill="rgb(161,55,74)" height="10mm" width="0.6913484188201929mm" x="70.8mm" y="109.60000000000001mm" /><rect fill="rgb(161,55,74)" height="10mm" width="0.5158442671582265mm" x="171.20000000000002mm" y="109.60000000000001mm" /><rect fill="rgb(204,70,95)" height="10mm" width="32.13235294117647mm" x="271.6mm" y="109.60000000000001mm" /><line stroke="rgb(250,0,0)" stroke-width="0.5mm" x1="298.14411764705886mm" x2="298.14411764705886mm" y1="111.60000000000001mm" y2="117.60000000000001mm" /><line stroke="rgb(250,0,0)" stroke-width="0.5mm" x1="298.14411764705886mm" x2="309.3205882352941mm" y1="114.60000000000001mm" y2="114.60000000000001mm" /><line stroke="rgb(250,0,0)" stroke-width="0.5mm" x1="309.3205882352941mm" x2="309.3205882352941mm" y1="111.60000000000001mm" y2="117.60000000000001mm" /><text fill="rgb(0,0,0)" style="font-size:20px; font-weight:bold;  font-family:Noto Serif;text-anchor:end" x="60mm" y="115.60000000000001mm">copy_LLVM</text><line stroke="rgb(190,190,190)" stroke-width="0.4mm" x1="0.0mm" x2="372.0mm" y1="119.60000000000001mm" y2="119.60000000000001mm" /><rect fill="rgb(101,86,150)" height="10mm" width="94.4403352044875mm" x="70.8mm" y="119.80000000000001mm" /><rect fill="rgb(101,86,150)" height="10mm" width="0.8939808091705117mm" x="171.20000000000002mm" y="119.80000000000001mm" /><rect fill="rgb(79,67,117)" height="10mm" width="1.5072567563033301mm" x="70.8mm" y="119.80000000000001mm" /><rect fill="rgb(79,67,117)" height="10mm" width="0.4072397909554287mm" x="171.20000000000002mm" y="119.80000000000001mm" /><rect fill="rgb(101,86,150)" height="10mm" width="71.25mm" x="271.6mm" y="119.80000000000001mm" /><line stroke="rgb(250,0,0)" stroke-width="0.5mm" x1="319.1mm" x2="319.1mm" y1="121.80000000000001mm" y2="127.80000000000001mm" /><line stroke="rgb(250,0,0)" stroke-width="0.5mm" x1="319.1mm" x2="366.6mm" y1="124.80000000000001mm" y2="124.80000000000001mm" /><line stroke="rgb(250,0,0)" stroke-width="0.5mm" x1="366.6mm" x2="366.6mm" y1="121.80000000000001mm" y2="127.80000000000001mm" /><text fill="rgb(0,0,0)" style="font-size:20px; font-weight:bold;  font-family:Noto Serif;text-anchor:end" x="60mm" y="125.80000000000001mm">copy</text><line stroke="rgb(190,190,190)" stroke-width="0.4mm" x1="0.0mm" x2="372.0mm" y1="129.8mm" y2="129.8mm" /><rect fill="rgb(183,210,217)" height="10mm" width="95.0mm" x="70.8mm" y="130.0mm" /><rect fill="rgb(183,210,217)" height="10mm" width="95.0mm" x="171.20000000000002mm" y="130.0mm" /><rect fill="rgb(157,180,186)" height="10mm" width="1.7146386461236842mm" x="70.8mm" y="130.0mm" /><rect fill="rgb(157,180,186)" height="10mm" width="94.84656962095572mm" x="171.20000000000002mm" y="130.0mm" /><rect fill="rgb(183,210,217)" height="10mm" width="54.48529411764706mm" x="271.6mm" y="130.0mm" /><line stroke="rgb(250,0,0)" stroke-width="0.5mm" x1="321.89411764705886mm" x2="321.89411764705886mm" y1="132.0mm" y2="138.0mm" /><line stroke="rgb(250,0,0)" stroke-width="0.5mm" x1="321.89411764705886mm" x2="330.2764705882353mm" y1="135.0mm" y2="135.0mm" /><line stroke="rgb(250,0,0)" stroke-width="0.5mm" x1="330.2764705882353mm" x2="330.2764705882353mm" y1="132.0mm" y2="138.0mm" /><text fill="rgb(0,0,0)" style="font-size:20px; font-weight:bold;  font-family:Noto Serif;text-anchor:end" x="60mm" y="136.0mm">non_collecting</text><line stroke="rgb(190,190,190)" stroke-width="0.4mm" x1="0.0mm" x2="372.0mm" y1="140.0mm" y2="140.0mm" /><text fill="rgb(0,0,0)" style="font-size:15px; font-weight:bold;  font-family:Noto Serif;" x="75mm" y="144.2mm">0</text><text fill="rgb(0,0,0)" style="font-size:14px; font-weight:bold;  font-family:Noto Serif; text-anchor:end" x="165mm" y="144.2mm">15.1</text><text fill="rgb(0,0,0)" style="font-size:15px; font-weight:bold;  font-family:Noto Serif;" x="175mm" y="144.2mm">0</text><text fill="rgb(0,0,0)" style="font-size:14px; font-weight:bold;  font-family:Noto Serif; text-anchor:end" x="265mm" y="144.2mm">1.09e+05</text><text fill="rgb(0,0,0)" style="font-size:15px; font-weight:bold;  font-family:Noto Serif;" x="275mm" y="144.2mm">0</text><text fill="rgb(0,0,0)" style="font-size:14px; font-weight:bold;  font-family:Noto Serif; text-anchor:end" x="365mm" y="144.2mm">6.80e-04</text><rect fill="navy" height="8mm" width="372.0mm" x="0.0mm" y="145.2mm" /><text fill="rgb(255,255,255)" style="font-size:20px; font-weight:bold;  font-family:Noto Serif; text-anchor:middle" x="186.0mm" y="151.2mm">listWithHoles</text><rect fill="rgb(204,70,95)" height="10mm" width="41.100126468055144mm" x="70.8mm" y="153.2mm" /><rect fill="rgb(204,70,95)" height="10mm" width="4.125990458404427mm" x="171.20000000000002mm" y="153.2mm" /><rect fill="rgb(161,55,74)" height="10mm" width="4.904968003504959mm" x="70.8mm" y="153.2mm" /><rect fill="rgb(161,55,74)" height="10mm" width="2.4490752760857126mm" x="171.20000000000002mm" y="153.2mm" /><rect fill="rgb(204,70,95)" height="10mm" width="11.783717679944097mm" x="271.6mm" y="153.2mm" /><line stroke="rgb(250,0,0)" stroke-width="0.5mm" x1="274.38825995807133mm" x2="274.38825995807133mm" y1="155.2mm" y2="161.2mm" /><line stroke="rgb(250,0,0)" stroke-width="0.5mm" x1="274.38825995807133mm" x2="292.37917540181695mm" y1="158.2mm" y2="158.2mm" /><line stroke="rgb(250,0,0)" stroke-width="0.5mm" x1="292.37917540181695mm" x2="292.37917540181695mm" y1="155.2mm" y2="161.2mm" /><text fill="rgb(0,0,0)" style="font-size:20px; font-weight:bold;  font-family:Noto Serif;text-anchor:end" x="60mm" y="159.2mm">copy_LLVM</text><line stroke="rgb(190,190,190)" stroke-width="0.4mm" x1="0.0mm" x2="372.0mm" y1="163.2mm" y2="163.2mm" /><rect fill="rgb(101,86,150)" height="10mm" width="95.0mm" x="70.8mm" y="163.39999999999998mm" /><rect fill="rgb(101,86,150)" height="10mm" width="3.9500323541471256mm" x="171.20000000000002mm" y="163.39999999999998mm" /><rect fill="rgb(79,67,117)" height="10mm" width="21.969028723109478mm" x="70.8mm" y="163.39999999999998mm" /><rect fill="rgb(79,67,117)" height="10mm" width="1.8696229016494217mm" x="171.20000000000002mm" y="163.39999999999998mm" /><rect fill="rgb(101,86,150)" height="10mm" width="52.71139063591894mm" x="271.6mm" y="163.39999999999998mm" /><line stroke="rgb(250,0,0)" stroke-width="0.5mm" x1="282.02278127183786mm" x2="282.02278127183786mm" y1="165.39999999999998mm" y2="171.39999999999998mm" /><line stroke="rgb(250,0,0)" stroke-width="0.5mm" x1="282.02278127183786mm" x2="366.6mm" y1="168.39999999999998mm" y2="168.39999999999998mm" /><line stroke="rgb(250,0,0)" stroke-width="0.5mm" x1="366.6mm" x2="366.6mm" y1="165.39999999999998mm" y2="171.39999999999998mm" /><text fill="rgb(0,0,0)" style="font-size:20px; font-weight:bold;  font-family:Noto Serif;text-anchor:end" x="60mm" y="169.39999999999998mm">copy</text><line stroke="rgb(190,190,190)" stroke-width="0.4mm" x1="0.0mm" x2="372.0mm" y1="173.39999999999998mm" y2="173.39999999999998mm" /><rect fill="rgb(183,210,217)" height="10mm" width="75.1600433323326mm" x="70.8mm" y="173.59999999999997mm" /><rect fill="rgb(183,210,217)" height="10mm" width="95.0mm" x="171.20000000000002mm" y="173.59999999999997mm" /><rect fill="rgb(157,180,186)" height="10mm" width="1.276603334422566mm" x="70.8mm" y="173.59999999999997mm" /><rect fill="rgb(157,180,186)" height="10mm" width="94.85633502859771mm" x="171.20000000000002mm" y="173.59999999999997mm" /><rect fill="rgb(183,210,217)" height="10mm" width="1.2945492662473794mm" x="271.6mm" y="173.59999999999997mm" /><line stroke="rgb(250,0,0)" stroke-width="0.5mm" x1="272.82816212438854mm" x2="272.82816212438854mm" y1="175.59999999999997mm" y2="181.59999999999997mm" /><line stroke="rgb(250,0,0)" stroke-width="0.5mm" x1="272.82816212438854mm" x2="272.96093640810625mm" y1="178.59999999999997mm" y2="178.59999999999997mm" /><line stroke="rgb(250,0,0)" stroke-width="0.5mm" x1="272.96093640810625mm" x2="272.96093640810625mm" y1="175.59999999999997mm" y2="181.59999999999997mm" /><text fill="rgb(0,0,0)" style="font-size:20px; font-weight:bold;  font-family:Noto Serif;text-anchor:end" x="60mm" y="179.59999999999997mm">non_collecting</text><line stroke="rgb(190,190,190)" stroke-width="0.4mm" x1="0.0mm" x2="372.0mm" y1="183.59999999999997mm" y2="183.59999999999997mm" /><text fill="rgb(0,0,0)" style="font-size:15px; font-weight:bold;  font-family:Noto Serif;" x="75mm" y="187.79999999999995mm">0</text><text fill="rgb(0,0,0)" style="font-size:14px; font-weight:bold;  font-family:Noto Serif; text-anchor:end" x="165mm" y="187.79999999999995mm">21.2</text><text fill="rgb(0,0,0)" style="font-size:15px; font-weight:bold;  font-family:Noto Serif;" x="175mm" y="187.79999999999995mm">0</text><text fill="rgb(0,0,0)" style="font-size:14px; font-weight:bold;  font-family:Noto Serif; text-anchor:end" x="265mm" y="187.79999999999995mm">1.14e+05</text><text fill="rgb(0,0,0)" style="font-size:15px; font-weight:bold;  font-family:Noto Serif;" x="275mm" y="187.79999999999995mm">0</text><text fill="rgb(0,0,0)" style="font-size:14px; font-weight:bold;  font-family:Noto Serif; text-anchor:end" x="365mm" y="187.79999999999995mm">0.0286</text><rect fill="navy" height="8mm" width="372.0mm" x="0.0mm" y="188.79999999999995mm" /><text fill="rgb(255,255,255)" style="font-size:20px; font-weight:bold;  font-family:Noto Serif; text-anchor:middle" x="186.0mm" y="194.79999999999995mm">treeTest</text><rect fill="rgb(204,70,95)" height="10mm" width="38.7830995967981mm" x="70.8mm" y="196.79999999999995mm" /><rect fill="rgb(204,70,95)" height="10mm" width="5.685170990760614mm" x="171.20000000000002mm" y="196.79999999999995mm" /><rect fill="rgb(161,55,74)" height="10mm" width="5.855302818107583mm" x="70.8mm" y="196.79999999999995mm" /><rect fill="rgb(161,55,74)" height="10mm" width="3.2922284948761797mm" x="171.20000000000002mm" y="196.79999999999995mm" /><rect fill="rgb(204,70,95)" height="10mm" width="13.80011621150494mm" x="271.6mm" y="196.79999999999995mm" /><line stroke="rgb(250,0,0)" stroke-width="0.5mm" x1="276.2920395119117mm" x2="276.2920395119117mm" y1="198.79999999999995mm" y2="204.79999999999995mm" /><line stroke="rgb(250,0,0)" stroke-width="0.5mm" x1="276.2920395119117mm" x2="294.5081929110982mm" y1="201.79999999999995mm" y2="201.79999999999995mm" /><line stroke="rgb(250,0,0)" stroke-width="0.5mm" x1="294.5081929110982mm" x2="294.5081929110982mm" y1="198.79999999999995mm" y2="204.79999999999995mm" /><text fill="rgb(0,0,0)" style="font-size:20px; font-weight:bold;  font-family:Noto Serif;text-anchor:end" x="60mm" y="202.79999999999995mm">copy_LLVM</text><line stroke="rgb(190,190,190)" stroke-width="0.4mm" x1="0.0mm" x2="372.0mm" y1="206.79999999999995mm" y2="206.79999999999995mm" /><rect fill="rgb(101,86,150)" height="10mm" width="95.0mm" x="70.8mm" y="206.99999999999994mm" /><rect fill="rgb(101,86,150)" height="10mm" width="5.540923037675527mm" x="171.20000000000002mm" y="206.99999999999994mm" /><rect fill="rgb(79,67,117)" height="10mm" width="24.703988707023495mm" x="70.8mm" y="206.99999999999994mm" /><rect fill="rgb(79,67,117)" height="10mm" width="2.46119091263413mm" x="171.20000000000002mm" y="206.99999999999994mm" /><rect fill="rgb(101,86,150)" height="10mm" width="58.346891342242884mm" x="271.6mm" y="206.99999999999994mm" /><line stroke="rgb(250,0,0)" stroke-width="0.5mm" x1="293.2937826844858mm" x2="293.2937826844858mm" y1="208.99999999999994mm" y2="214.99999999999994mm" /><line stroke="rgb(250,0,0)" stroke-width="0.5mm" x1="293.2937826844858mm" x2="366.6mm" y1="211.99999999999994mm" y2="211.99999999999994mm" /><line stroke="rgb(250,0,0)" stroke-width="0.5mm" x1="366.6mm" x2="366.6mm" y1="208.99999999999994mm" y2="214.99999999999994mm" /><text fill="rgb(0,0,0)" style="font-size:20px; font-weight:bold;  font-family:Noto Serif;text-anchor:end" x="60mm" y="212.99999999999994mm">copy</text><line stroke="rgb(190,190,190)" stroke-width="0.4mm" x1="0.0mm" x2="372.0mm" y1="216.99999999999994mm" y2="216.99999999999994mm" /><rect fill="rgb(183,210,217)" height="10mm" width="71.64909302495829mm" x="70.8mm" y="217.19999999999993mm" /><rect fill="rgb(183,210,217)" height="10mm" width="95.0mm" x="171.20000000000002mm" y="217.19999999999993mm" /><rect fill="rgb(157,180,186)" height="10mm" width="1.1159704342013046mm" x="70.8mm" y="217.19999999999993mm" /><rect fill="rgb(157,180,186)" height="10mm" width="94.26216390811123mm" x="171.20000000000002mm" y="217.19999999999993mm" /><rect fill="rgb(183,210,217)" height="10mm" width="2.1528181289947708mm" x="271.6mm" y="217.19999999999993mm" /><line stroke="rgb(250,0,0)" stroke-width="0.5mm" x1="273.6976176641488mm" x2="273.6976176641488mm" y1="219.19999999999993mm" y2="225.19999999999993mm" /><line stroke="rgb(250,0,0)" stroke-width="0.5mm" x1="273.6976176641488mm" x2="273.8080185938408mm" y1="222.19999999999993mm" y2="222.19999999999993mm" /><line stroke="rgb(250,0,0)" stroke-width="0.5mm" x1="273.8080185938408mm" x2="273.8080185938408mm" y1="219.19999999999993mm" y2="225.19999999999993mm" /><text fill="rgb(0,0,0)" style="font-size:20px; font-weight:bold;  font-family:Noto Serif;text-anchor:end" x="60mm" y="223.19999999999993mm">non_collecting</text><line stroke="rgb(190,190,190)" stroke-width="0.4mm" x1="0.0mm" x2="372.0mm" y1="227.19999999999993mm" y2="227.19999999999993mm" /><text fill="rgb(0,0,0)" style="font-size:15px; font-weight:bold;  font-family:Noto Serif;" x="75mm" y="231.39999999999992mm">0</text><text fill="rgb(0,0,0)" style="font-size:14px; font-weight:bold;  font-family:Noto Serif; text-anchor:end" x="165mm" y="231.39999999999992mm">8.09</text><text fill="rgb(0,0,0)" style="font-size:15px; font-weight:bold;  font-family:Noto Serif;" x="175mm" y="231.39999999999992mm">0</text><text fill="rgb(0,0,0)" style="font-size:14px; font-weight:bold;  font-family:Noto Serif; text-anchor:end" x="265mm" y="231.39999999999992mm">33503.2</text><text fill="rgb(0,0,0)" style="font-size:15px; font-weight:bold;  font-family:Noto Serif;" x="275mm" y="231.39999999999992mm">0</text><text fill="rgb(0,0,0)" style="font-size:14px; font-weight:bold;  font-family:Noto Serif; text-anchor:end" x="365mm" y="231.39999999999992mm">0.0172</text></svg>