<?xml version="1.0" encoding="utf-8" ?>
<svg baseProfile="full" height="183.8mm" version="1.1" width="372.0mm" xmlns="http://www.w3.org/2000/svg" xmlns:ev="http://www.w3.org/2001/xml-events" xmlns:xlink="http://www.w3.org/1999/xlink"><defs /><line stroke="rgb(190,190,190)" stroke-width="0.4mm" x1="0mm" x2="372.0mm" y1="0mm" y2="0mm" /><line stroke="rgb(190,190,190)" stroke-width="0.4mm" x1="0mm" x2="0mm" y1="0mm" y2="183.8mm" /><line stroke="rgb(190,190,190)" stroke-width="0.4mm" x1="0mm" x2="372.0mm" y1="183.8mm" y2="183.8mm" /><line stroke="rgb(190,190,190)" stroke-width="0.4mm" x1="372.0mm" x2="372.0mm" y1="0mm" y2="183.8mm" /><line stroke="rgb(190,190,190)" stroke-width="0.4mm" x1="70.4mm" x2="70.4mm" y1="0mm" y2="183.8mm" /><line stroke="rgb(190,190,190)" stroke-width="0.4mm" x1="170.8mm" x2="170.8mm" y1="0mm" y2="183.8mm" /><line stroke="rgb(190,190,190)" stroke-width="0.4mm" x1="271.2mm" x2="271.2mm" y1="0mm" y2="183.8mm" /><text fill="rgb(0,0,0)" style="font-size:16px; font-weight:bold;  font-family:Noto Serif" x="80mm" y="5mm">Время потраченное сборщиком /</text><text fill="rgb(0,0,0)" style="font-size:16px; font-weight:bold;  font-family:Noto Serif" x="80mm" y="10mm">Общее время (с)</text><text fill="rgb(0,0,0)" style="font-size:16px; font-weight:bold;  font-family:Noto Serif" x="180mm" y="5mm">Использованная память /</text><text fill="rgb(0,0,0)" style="font-size:16px; font-weight:bold;  font-family:Noto Serif" x="180mm" y="10mm"> Общая выделенная память (Kb)</text><text fill="rgb(0,0,0)" style="font-size:16px; font-weight:bold;  font-family:Noto Serif" x="280mm" y="5mm">средняя длительность паузы (с)</text><text fill="rgb(0,0,0)" style="font-size:16px; font-weight:bold;  font-family:Noto Serif" x="280mm" y="10mm">+ дисперсия длительности паузы</text><rect fill="navy" height="8mm" width="372.0mm" x="0mm" y="14.4mm" /><text fill="rgb(255,255,255)" style="font-size:20px; font-weight:bold;  font-family:Noto Serif; text-anchor:middle" x="186.0mm" y="20.4mm">listWithArrays</text><rect fill="rgb(204,70,95)" height="10mm" width="40.63452576253178mm" x="70.8mm" y="22.4mm" /><rect fill="rgb(204,70,95)" height="10mm" width="95.0mm" x="171.20000000000002mm" y="22.4mm" /><rect fill="rgb(161,55,74)" height="10mm" width="5.930268694949327mm" x="70.8mm" y="22.4mm" /><rect fill="rgb(161,55,74)" height="10mm" width="55.78501373087485mm" x="171.20000000000002mm" y="22.4mm" /><rect fill="rgb(204,70,95)" height="10mm" width="13.521505376344086mm" x="271.6mm" y="22.4mm" /><line stroke="rgb(250,0,0)" stroke-width="0.5mm" x1="276.3311827956989mm" x2="276.3311827956989mm" y1="24.4mm" y2="30.4mm" /><line stroke="rgb(250,0,0)" stroke-width="0.5mm" x1="276.3311827956989mm" x2="293.91182795698927mm" y1="27.4mm" y2="27.4mm" /><line stroke="rgb(250,0,0)" stroke-width="0.5mm" x1="293.91182795698927mm" x2="293.91182795698927mm" y1="24.4mm" y2="30.4mm" /><text fill="rgb(0,0,0)" style="font-size:20px; font-weight:bold;  font-family:Noto Serif;text-anchor:end" x="60mm" y="28.4mm">copy_LLVM</text><line stroke="rgb(190,190,190)" stroke-width="0.4mm" x1="0.0mm" x2="372.0mm" y1="32.4mm" y2="32.4mm" /><rect fill="rgb(101,86,150)" height="10mm" width="95.0mm" x="70.8mm" y="32.6mm" /><rect fill="rgb(101,86,150)" height="10mm" width="90.94625390409256mm" x="171.20000000000002mm" y="32.6mm" /><rect fill="rgb(79,67,117)" height="10mm" width="24.93194264220068mm" x="70.8mm" y="32.6mm" /><rect fill="rgb(79,67,117)" height="10mm" width="42.76349434455851mm" x="171.20000000000002mm" y="32.6mm" /><rect fill="rgb(101,86,150)" height="10mm" width="56.82795698924732mm" x="271.6mm" y="32.6mm" /><line stroke="rgb(250,0,0)" stroke-width="0.5mm" x1="290.2559139784946mm" x2="290.2559139784946mm" y1="34.6mm" y2="40.6mm" /><line stroke="rgb(250,0,0)" stroke-width="0.5mm" x1="290.2559139784946mm" x2="366.6mm" y1="37.6mm" y2="37.6mm" /><line stroke="rgb(250,0,0)" stroke-width="0.5mm" x1="366.6mm" x2="366.6mm" y1="34.6mm" y2="40.6mm" /><text fill="rgb(0,0,0)" style="font-size:20px; font-weight:bold;  font-family:Noto Serif;text-anchor:end" x="60mm" y="38.6mm">copy</text><line stroke="rgb(190,190,190)" stroke-width="0.4mm" x1="0.0mm" x2="372.0mm" y1="42.6mm" y2="42.6mm" /><text fill="rgb(0,0,0)" style="font-size:15px; font-weight:bold;  font-family:Noto Serif;" x="75mm" y="46.800000000000004mm">0</text><text fill="rgb(0,0,0)" style="font-size:14px; font-weight:bold;  font-family:Noto Serif; text-anchor:end" x="165mm" y="46.800000000000004mm">22.2</text><text fill="rgb(0,0,0)" style="font-size:15px; font-weight:bold;  font-family:Noto Serif;" x="175mm" y="46.800000000000004mm">0</text><text fill="rgb(0,0,0)" style="font-size:14px; font-weight:bold;  font-family:Noto Serif; text-anchor:end" x="265mm" y="46.800000000000004mm">5360.89</text><text fill="rgb(0,0,0)" style="font-size:15px; font-weight:bold;  font-family:Noto Serif;" x="275mm" y="46.800000000000004mm">0</text><text fill="rgb(0,0,0)" style="font-size:14px; font-weight:bold;  font-family:Noto Serif; text-anchor:end" x="365mm" y="46.800000000000004mm">0.0353</text><rect fill="navy" height="8mm" width="372.0mm" x="0.0mm" y="47.800000000000004mm" /><text fill="rgb(255,255,255)" style="font-size:20px; font-weight:bold;  font-family:Noto Serif; text-anchor:middle" x="186.0mm" y="53.800000000000004mm">treeTest</text><rect fill="rgb(204,70,95)" height="10mm" width="38.435680040642026mm" x="70.8mm" y="55.800000000000004mm" /><rect fill="rgb(204,70,95)" height="10mm" width="95.0mm" x="171.20000000000002mm" y="55.800000000000004mm" /><rect fill="rgb(161,55,74)" height="10mm" width="5.832825783340786mm" x="70.8mm" y="55.800000000000004mm" /><rect fill="rgb(161,55,74)" height="10mm" width="54.98184294144349mm" x="171.20000000000002mm" y="55.800000000000004mm" /><rect fill="rgb(204,70,95)" height="10mm" width="13.79032258064516mm" x="271.6mm" y="55.800000000000004mm" /><line stroke="rgb(250,0,0)" stroke-width="0.5mm" x1="276.3609447004609mm" x2="276.3609447004609mm" y1="57.800000000000004mm" y2="63.80000000000001mm" /><line stroke="rgb(250,0,0)" stroke-width="0.5mm" x1="276.3609447004609mm" x2="294.4197004608295mm" y1="60.800000000000004mm" y2="60.800000000000004mm" /><line stroke="rgb(250,0,0)" stroke-width="0.5mm" x1="294.4197004608295mm" x2="294.4197004608295mm" y1="57.800000000000004mm" y2="63.80000000000001mm" /><text fill="rgb(0,0,0)" style="font-size:20px; font-weight:bold;  font-family:Noto Serif;text-anchor:end" x="60mm" y="61.80000000000001mm">copy_LLVM</text><line stroke="rgb(190,190,190)" stroke-width="0.4mm" x1="0.0mm" x2="372.0mm" y1="65.80000000000001mm" y2="65.80000000000001mm" /><rect fill="rgb(101,86,150)" height="10mm" width="95.0mm" x="70.8mm" y="66.00000000000001mm" /><rect fill="rgb(101,86,150)" height="10mm" width="92.75392055805715mm" x="171.20000000000002mm" y="66.00000000000001mm" /><rect fill="rgb(79,67,117)" height="10mm" width="24.693125378558562mm" x="70.8mm" y="66.00000000000001mm" /><rect fill="rgb(79,67,117)" height="10mm" width="41.20974864094257mm" x="171.20000000000002mm" y="66.00000000000001mm" /><rect fill="rgb(101,86,150)" height="10mm" width="58.280529953917046mm" x="271.6mm" y="66.00000000000001mm" /><line stroke="rgb(250,0,0)" stroke-width="0.5mm" x1="293.1610599078341mm" x2="293.1610599078341mm" y1="68.00000000000001mm" y2="74.00000000000001mm" /><line stroke="rgb(250,0,0)" stroke-width="0.5mm" x1="293.1610599078341mm" x2="366.6mm" y1="71.00000000000001mm" y2="71.00000000000001mm" /><line stroke="rgb(250,0,0)" stroke-width="0.5mm" x1="366.6mm" x2="366.6mm" y1="68.00000000000001mm" y2="74.00000000000001mm" /><text fill="rgb(0,0,0)" style="font-size:20px; font-weight:bold;  font-family:Noto Serif;text-anchor:end" x="60mm" y="72.00000000000001mm">copy</text><line stroke="rgb(190,190,190)" stroke-width="0.4mm" x1="0.0mm" x2="372.0mm" y1="76.00000000000001mm" y2="76.00000000000001mm" /><text fill="rgb(0,0,0)" style="font-size:15px; font-weight:bold;  font-family:Noto Serif;" x="75mm" y="80.20000000000002mm">0</text><text fill="rgb(0,0,0)" style="font-size:14px; font-weight:bold;  font-family:Noto Serif; text-anchor:end" x="165mm" y="80.20000000000002mm">8.15</text><text fill="rgb(0,0,0)" style="font-size:15px; font-weight:bold;  font-family:Noto Serif;" x="175mm" y="80.20000000000002mm">0</text><text fill="rgb(0,0,0)" style="font-size:14px; font-weight:bold;  font-family:Noto Serif; text-anchor:end" x="265mm" y="80.20000000000002mm">2003.41</text><text fill="rgb(0,0,0)" style="font-size:15px; font-weight:bold;  font-family:Noto Serif;" x="275mm" y="80.20000000000002mm">0</text><text fill="rgb(0,0,0)" style="font-size:14px; font-weight:bold;  font-family:Noto Serif; text-anchor:end" x="365mm" y="80.20000000000002mm">0.0174</text><rect fill="navy" height="8mm" width="372.0mm" x="0.0mm" y="81.20000000000002mm" /><text fill="rgb(255,255,255)" style="font-size:20px; font-weight:bold;  font-family:Noto Serif; text-anchor:middle" x="186.0mm" y="87.20000000000002mm">listWithHoles</text><rect fill="rgb(204,70,95)" height="10mm" width="46.01628291135249mm" x="70.8mm" y="89.20000000000002mm" /><rect fill="rgb(204,70,95)" height="10mm" width="94.25862082170315mm" x="171.20000000000002mm" y="89.20000000000002mm" /><rect fill="rgb(161,55,74)" height="10mm" width="5.518897706626768mm" x="70.8mm" y="89.20000000000002mm" /><rect fill="rgb(161,55,74)" height="10mm" width="55.88081970191708mm" x="171.20000000000002mm" y="89.20000000000002mm" /><rect fill="rgb(204,70,95)" height="10mm" width="13.240418118466902mm" x="271.6mm" y="89.20000000000002mm" /><line stroke="rgb(250,0,0)" stroke-width="0.5mm" x1="273.9501742160279mm" x2="273.9501742160279mm" y1="91.20000000000002mm" y2="97.20000000000002mm" /><line stroke="rgb(250,0,0)" stroke-width="0.5mm" x1="273.9501742160279mm" x2="295.7306620209059mm" y1="94.20000000000002mm" y2="94.20000000000002mm" /><line stroke="rgb(250,0,0)" stroke-width="0.5mm" x1="295.7306620209059mm" x2="295.7306620209059mm" y1="91.20000000000002mm" y2="97.20000000000002mm" /><text fill="rgb(0,0,0)" style="font-size:20px; font-weight:bold;  font-family:Noto Serif;text-anchor:end" x="60mm" y="95.20000000000002mm">copy_LLVM</text><line stroke="rgb(190,190,190)" stroke-width="0.4mm" x1="0.0mm" x2="372.0mm" y1="99.20000000000002mm" y2="99.20000000000002mm" /><rect fill="rgb(101,86,150)" height="10mm" width="95.0mm" x="70.8mm" y="99.40000000000002mm" /><rect fill="rgb(101,86,150)" height="10mm" width="95.0mm" x="171.20000000000002mm" y="99.40000000000002mm" /><rect fill="rgb(79,67,117)" height="10mm" width="21.914240484133924mm" x="70.8mm" y="99.40000000000002mm" /><rect fill="rgb(79,67,117)" height="10mm" width="44.94963260253185mm" x="171.20000000000002mm" y="99.40000000000002mm" /><rect fill="rgb(101,86,150)" height="10mm" width="52.564459930313596mm" x="271.6mm" y="99.40000000000002mm" /><line stroke="rgb(250,0,0)" stroke-width="0.5mm" x1="281.72891986062723mm" x2="281.72891986062723mm" y1="101.40000000000002mm" y2="107.40000000000002mm" /><line stroke="rgb(250,0,0)" stroke-width="0.5mm" x1="281.72891986062723mm" x2="366.6mm" y1="104.40000000000002mm" y2="104.40000000000002mm" /><line stroke="rgb(250,0,0)" stroke-width="0.5mm" x1="366.6mm" x2="366.6mm" y1="101.40000000000002mm" y2="107.40000000000002mm" /><text fill="rgb(0,0,0)" style="font-size:20px; font-weight:bold;  font-family:Noto Serif;text-anchor:end" x="60mm" y="105.40000000000002mm">copy</text><line stroke="rgb(190,190,190)" stroke-width="0.4mm" x1="0.0mm" x2="372.0mm" y1="109.40000000000002mm" y2="109.40000000000002mm" /><text fill="rgb(0,0,0)" style="font-size:15px; font-weight:bold;  font-family:Noto Serif;" x="75mm" y="113.60000000000002mm">0</text><text fill="rgb(0,0,0)" style="font-size:14px; font-weight:bold;  font-family:Noto Serif; text-anchor:end" x="165mm" y="113.60000000000002mm">21.2</text><text fill="rgb(0,0,0)" style="font-size:15px; font-weight:bold;  font-family:Noto Serif;" x="175mm" y="113.60000000000002mm">0</text><text fill="rgb(0,0,0)" style="font-size:14px; font-weight:bold;  font-family:Noto Serif; text-anchor:end" x="265mm" y="113.60000000000002mm">4724.14</text><text fill="rgb(0,0,0)" style="font-size:15px; font-weight:bold;  font-family:Noto Serif;" x="275mm" y="113.60000000000002mm">0</text><text fill="rgb(0,0,0)" style="font-size:14px; font-weight:bold;  font-family:Noto Serif; text-anchor:end" x="365mm" y="113.60000000000002mm">0.0287</text><rect fill="navy" height="8mm" width="372.0mm" x="0.0mm" y="114.60000000000002mm" /><text fill="rgb(255,255,255)" style="font-size:20px; font-weight:bold;  font-family:Noto Serif; text-anchor:middle" x="186.0mm" y="120.60000000000002mm">diff</text><rect fill="rgb(204,70,95)" height="10mm" width="48.488453328102764mm" x="70.8mm" y="122.60000000000002mm" /><rect fill="rgb(204,70,95)" height="10mm" width="94.6627967901025mm" x="171.20000000000002mm" y="122.60000000000002mm" /><rect fill="rgb(161,55,74)" height="10mm" width="0.7065825097606052mm" x="70.8mm" y="122.60000000000002mm" /><rect fill="rgb(161,55,74)" height="10mm" width="54.72027788239382mm" x="171.20000000000002mm" y="122.60000000000002mm" /><rect fill="rgb(204,70,95)" height="10mm" width="34.54545454545455mm" x="271.6mm" y="122.60000000000002mm" /><line stroke="rgb(250,0,0)" stroke-width="0.5mm" x1="300.38787878787883mm" x2="300.38787878787883mm" y1="124.60000000000002mm" y2="130.60000000000002mm" /><line stroke="rgb(250,0,0)" stroke-width="0.5mm" x1="300.38787878787883mm" x2="311.90303030303033mm" y1="127.60000000000002mm" y2="127.60000000000002mm" /><line stroke="rgb(250,0,0)" stroke-width="0.5mm" x1="311.90303030303033mm" x2="311.90303030303033mm" y1="124.60000000000002mm" y2="130.60000000000002mm" /><text fill="rgb(0,0,0)" style="font-size:20px; font-weight:bold;  font-family:Noto Serif;text-anchor:end" x="60mm" y="128.60000000000002mm">copy_LLVM</text><line stroke="rgb(190,190,190)" stroke-width="0.4mm" x1="0.0mm" x2="372.0mm" y1="132.60000000000002mm" y2="132.60000000000002mm" /><rect fill="rgb(101,86,150)" height="10mm" width="95.0mm" x="70.8mm" y="132.8mm" /><rect fill="rgb(101,86,150)" height="10mm" width="95.0mm" x="171.20000000000002mm" y="132.8mm" /><rect fill="rgb(79,67,117)" height="10mm" width="1.5123281538160558mm" x="70.8mm" y="132.8mm" /><rect fill="rgb(79,67,117)" height="10mm" width="43.176174606286345mm" x="171.20000000000002mm" y="132.8mm" /><rect fill="rgb(101,86,150)" height="10mm" width="71.96969696969698mm" x="271.6mm" y="132.8mm" /><line stroke="rgb(250,0,0)" stroke-width="0.5mm" x1="320.53939393939396mm" x2="320.53939393939396mm" y1="134.8mm" y2="140.8mm" /><line stroke="rgb(250,0,0)" stroke-width="0.5mm" x1="320.53939393939396mm" x2="366.6000000000001mm" y1="137.8mm" y2="137.8mm" /><line stroke="rgb(250,0,0)" stroke-width="0.5mm" x1="366.6000000000001mm" x2="366.6000000000001mm" y1="134.8mm" y2="140.8mm" /><text fill="rgb(0,0,0)" style="font-size:20px; font-weight:bold;  font-family:Noto Serif;text-anchor:end" x="60mm" y="138.8mm">copy</text><line stroke="rgb(190,190,190)" stroke-width="0.4mm" x1="0.0mm" x2="372.0mm" y1="142.8mm" y2="142.8mm" /><text fill="rgb(0,0,0)" style="font-size:15px; font-weight:bold;  font-family:Noto Serif;" x="75mm" y="147.0mm">0</text><text fill="rgb(0,0,0)" style="font-size:14px; font-weight:bold;  font-family:Noto Serif; text-anchor:end" x="165mm" y="147.0mm">15.0</text><text fill="rgb(0,0,0)" style="font-size:15px; font-weight:bold;  font-family:Noto Serif;" x="175mm" y="147.0mm">0</text><text fill="rgb(0,0,0)" style="font-size:14px; font-weight:bold;  font-family:Noto Serif; text-anchor:end" x="265mm" y="147.0mm">1021.4</text><text fill="rgb(0,0,0)" style="font-size:15px; font-weight:bold;  font-family:Noto Serif;" x="275mm" y="147.0mm">0</text><text fill="rgb(0,0,0)" style="font-size:14px; font-weight:bold;  font-family:Noto Serif; text-anchor:end" x="365mm" y="147.0mm">6.60e-04</text><rect fill="navy" height="8mm" width="372.0mm" x="0.0mm" y="148.0mm" /><text fill="rgb(255,255,255)" style="font-size:20px; font-weight:bold;  font-family:Noto Serif; text-anchor:middle" x="186.0mm" y="154.0mm">treeTestWithBackLinks</text><rect fill="rgb(204,70,95)" height="10mm" width="36.39723942944957mm" x="70.8mm" y="156.0mm" /><rect fill="rgb(204,70,95)" height="10mm" width="95.0mm" x="171.20000000000002mm" y="156.0mm" /><rect fill="rgb(161,55,74)" height="10mm" width="6.8418711475519975mm" x="70.8mm" y="156.0mm" /><rect fill="rgb(161,55,74)" height="10mm" width="54.108151053112mm" x="171.20000000000002mm" y="156.0mm" /><rect fill="rgb(204,70,95)" height="10mm" width="12.312264424470861mm" x="271.6mm" y="156.0mm" /><line stroke="rgb(250,0,0)" stroke-width="0.5mm" x1="275.456190200058mm" x2="275.456190200058mm" y1="158.0mm" y2="164.0mm" /><line stroke="rgb(250,0,0)" stroke-width="0.5mm" x1="275.456190200058mm" x2="292.36833864888376mm" y1="161.0mm" y2="161.0mm" /><line stroke="rgb(250,0,0)" stroke-width="0.5mm" x1="292.36833864888376mm" x2="292.36833864888376mm" y1="158.0mm" y2="164.0mm" /><text fill="rgb(0,0,0)" style="font-size:20px; font-weight:bold;  font-family:Noto Serif;text-anchor:end" x="60mm" y="162.0mm">copy_LLVM</text><line stroke="rgb(190,190,190)" stroke-width="0.4mm" x1="0.0mm" x2="372.0mm" y1="166.0mm" y2="166.0mm" /><rect fill="rgb(101,86,150)" height="10mm" width="95.0mm" x="70.8mm" y="166.2mm" /><rect fill="rgb(101,86,150)" height="10mm" width="93.39320728274666mm" x="171.20000000000002mm" y="166.2mm" /><rect fill="rgb(79,67,117)" height="10mm" width="31.557159326495754mm" x="70.8mm" y="166.2mm" /><rect fill="rgb(79,67,117)" height="10mm" width="41.33035186978439mm" x="171.20000000000002mm" y="166.2mm" /><rect fill="rgb(101,86,150)" height="10mm" width="56.85126123514062mm" x="271.6mm" y="166.2mm" /><line stroke="rgb(250,0,0)" stroke-width="0.5mm" x1="290.30252247028125mm" x2="290.30252247028125mm" y1="168.2mm" y2="174.2mm" /><line stroke="rgb(250,0,0)" stroke-width="0.5mm" x1="290.30252247028125mm" x2="366.6mm" y1="171.2mm" y2="171.2mm" /><line stroke="rgb(250,0,0)" stroke-width="0.5mm" x1="366.6mm" x2="366.6mm" y1="168.2mm" y2="174.2mm" /><text fill="rgb(0,0,0)" style="font-size:20px; font-weight:bold;  font-family:Noto Serif;text-anchor:end" x="60mm" y="172.2mm">copy</text><line stroke="rgb(190,190,190)" stroke-width="0.4mm" x1="0.0mm" x2="372.0mm" y1="176.2mm" y2="176.2mm" /><text fill="rgb(0,0,0)" style="font-size:15px; font-weight:bold;  font-family:Noto Serif;" x="75mm" y="180.39999999999998mm">0</text><text fill="rgb(0,0,0)" style="font-size:14px; font-weight:bold;  font-family:Noto Serif; text-anchor:end" x="165mm" y="180.39999999999998mm">23.2</text><text fill="rgb(0,0,0)" style="font-size:15px; font-weight:bold;  font-family:Noto Serif;" x="175mm" y="180.39999999999998mm">0</text><text fill="rgb(0,0,0)" style="font-size:14px; font-weight:bold;  font-family:Noto Serif; text-anchor:end" x="265mm" y="180.39999999999998mm">3322.49</text><text fill="rgb(0,0,0)" style="font-size:15px; font-weight:bold;  font-family:Noto Serif;" x="275mm" y="180.39999999999998mm">0</text><text fill="rgb(0,0,0)" style="font-size:14px; font-weight:bold;  font-family:Noto Serif; text-anchor:end" x="365mm" y="180.39999999999998mm">0.0345</text></svg>